<svg xmlns="http://www.w3.org/2000/svg" width="16" height="16" fill="none" style=""><rect id="backgroundrect" width="100%" height="100%" x="0" y="0" fill="none" stroke="none"/>


<defs>
<filter id="filter0_d_1_14493" x="0" y="0" width="28" height="28" filterUnits="userSpaceOnUse" color-interpolation-filters="sRGB">
<feFlood flood-opacity="0" result="BackgroundImageFix"/>
<feColorMatrix in="SourceAlpha" type="matrix" values="0 0 0 0 0 0 0 0 0 0 0 0 0 0 0 0 0 0 127 0" result="hardAlpha"/>
<feOffset dy="3"/>
<feGaussianBlur stdDeviation="3"/>
<feColorMatrix type="matrix" values="0 0 0 0 0 0 0 0 0 0 0 0 0 0 0 0 0 0 0.09 0"/>
<feBlend mode="normal" in2="BackgroundImageFix" result="effect1_dropShadow_1_14493"/>
<feBlend mode="normal" in="SourceGraphic" in2="effect1_dropShadow_1_14493" result="shape"/>
</filter>
</defs>
<g class="currentLayer" style=""><title>Layer 1</title><g filter="url(#filter0_d_1_14493)" id="svg_1" class="">
<circle cx="8" cy="8" r="8" fill="#2BE080" id="svg_2"/>
</g><path fill-rule="evenodd" clip-rule="evenodd" d="M8,14 C11.3137,14 14,11.3137 14,8 C14,4.6862900000000005 11.3137,2 8,2 C4.686299999999999,2 2,4.6862900000000005 2,8 C2,11.3137 4.686299999999999,14 8,14 zM8,16 C12.418299999999999,16 16,12.4183 16,8 C16,3.58172 12.418299999999999,0 8,0 C3.5817200000000007,0 0,3.58172 0,8 C0,12.4183 3.5817200000000007,16 8,16 z" fill="white" id="svg_3" class=""/></g></svg>